<svg xmlns="http://www.w3.org/2000/svg" viewBox="0 0 300 200" width="300" height="200">
  <defs>
    <linearGradient id="g-body" x1="0" x2="1" y1="0.2" y2="0.8">
      <stop offset="0" stop-color="#6ef7b8" stop-opacity="0.85"/>
      <stop offset="1" stop-color="#12d39e" stop-opacity="0.9"/>
    </linearGradient>
    <radialGradient id="g-glow" cx="50%" cy="50%" r="60%">
      <stop offset="0" stop-color="#baffd9" stop-opacity="1"/>
      <stop offset="1" stop-color="#6ef7b8" stop-opacity="0"/>
    </radialGradient>
    <filter id="f-glow" x="-50%" y="-50%" width="200%" height="200%">
      <feGaussianBlur stdDeviation="3" result="b"/>
      <feMerge>
        <feMergeNode in="b"/>
        <feMergeNode in="SourceGraphic"/>
      </feMerge>
    </filter>
  </defs>
  <rect width="100%" height="100%" fill="none"/>
  <g transform="translate(150,115)">
    <!-- body -->
    <path d="M0,-36 C12,-32 26,-22 30,-8 L30,8 C26,22 12,32 0,36 C-12,32 -26,22 -30,8 L-30,-8 C-26,-22 -12,-32 0,-36 Z" fill="url(#g-body)" stroke="#7ef9c6" stroke-opacity="0.9" stroke-width="2" filter="url(#f-glow)"/>
    <!-- nose ridge -->
    <path d="M0,-40 L0,40" stroke="#c8ffea" stroke-opacity="0.5" stroke-width="1.5"/>
    <!-- wings -->
    <path d="M-30,-6 L-90,8 L-96,2 L-34,-20 Z" fill="#21e2a8" fill-opacity="0.55" stroke="#7ef9c6" stroke-opacity="0.8"/>
    <path d="M30,-6 L90,8 L96,2 L34,-20 Z" fill="#21e2a8" fill-opacity="0.55" stroke="#7ef9c6" stroke-opacity="0.8"/>
    <!-- engines -->
    <g>
      <circle cx="-20" cy="18" r="16" fill="#052018" stroke="#7ef9c6" stroke-opacity="0.8"/>
      <circle cx="20" cy="18" r="16" fill="#052018" stroke="#7ef9c6" stroke-opacity="0.8"/>
      <circle cx="-20" cy="18" r="9" fill="url(#g-glow)"/>
      <circle cx="20" cy="18" r="9" fill="url(#g-glow)"/>
    </g>
    <!-- tail fins -->
    <path d="M-18,-32 L-26,-78 L-18,-80 L-8,-36 Z" fill="#1ee6a7" fill-opacity="0.5" stroke="#7ef9c6" stroke-opacity="0.8"/>
    <path d="M18,-32 L26,-78 L18,-80 L8,-36 Z" fill="#1ee6a7" fill-opacity="0.5" stroke="#7ef9c6" stroke-opacity="0.8"/>
    <!-- tiny python mark -->
    <g transform="translate(0,0) scale(0.7)">
      <path d="M-6,-6 h6 a6,6 0 0 1 6,6 v7 h-9 a3,3 0 0 1 -3,-3 v-10 z" fill="#0b1120" stroke="#a7f3d0" stroke-width="1"/>
      <circle cx="1" cy="-3" r="1" fill="#a7f3d0"/>
      <path d="M6,6 h-6 a6,6 0 0 1 -6,-6 v-7 h9 a3,3 0 0 1 3,3 v10 z" fill="#0b1120" stroke="#a7f3d0" stroke-width="1"/>
      <circle cx="-1" cy="3" r="1" fill="#a7f3d0"/>
    </g>
  </g>
</svg>